<svg xmlns="http://www.w3.org/2000/svg" width="38" height="38" viewBox="0 0 38 38"><defs><mask id="vm3rb" width="2" height="2" x="-1" y="-1"><path fill="#fff" d="M10 9h17v17H10z"/><path d="M18.906 9.906a8.062 8.062 0 1 1 0 16.125 8.062 8.062 0 0 1 0-16.125z"/></mask><filter id="vm3ra" width="63" height="64" x="-13" y="-14" filterUnits="userSpaceOnUse"><feOffset dy="1" in="SourceGraphic" result="FeOffset1023Out"/><feGaussianBlur in="FeOffset1023Out" result="FeGaussianBlur1024Out" stdDeviation="5.2 5.2"/></filter><clipPath id="vm3rc"><path fill="#fff" d="M18.906 9.906a8.062 8.062 0 1 1 0 16.125 8.062 8.062 0 0 1 0-16.125z"/></clipPath></defs><g><g><g filter="url(#vm3ra)"><path fill="none" d="M18.906 9.906a8.062 8.062 0 1 1 0 16.125 8.062 8.062 0 0 1 0-16.125z" mask="url(&quot;#vm3rb&quot;)"/><path fill="#ef9499" fill-opacity=".38" d="M18.906 9.906a8.062 8.062 0 1 1 0 16.125 8.062 8.062 0 0 1 0-16.125z"/></g><path fill="#ef9499" d="M18.906 9.906a8.062 8.062 0 1 1 0 16.125 8.062 8.062 0 0 1 0-16.125z"/><path fill="none" stroke="#f7f7fb" stroke-miterlimit="20" stroke-width="8" d="M18.906 9.906a8.062 8.062 0 1 1 0 16.125 8.062 8.062 0 0 1 0-16.125z" clip-path="url(&quot;#vm3rc&quot;)"/></g></g></svg>